{
 "asset": {
  "generator": "Khronos glTF Blender I/O v5.0.21",
  "version": "2.0"
 },
 "scene": 0,
 "scenes": [
  {
   "name": "Scene",
   "nodes": [
    20
   ]
  }
 ],
 "nodes": [
  {
   "name": "Head",
   "translation": [
    0,
    1.6999988555908203,
    0
   ]
  },
  {
   "children": [
    0
   ],
   "name": "Neck",
   "translation": [
    0,
    2.6000003814697266,
    0
   ]
  },
  {
   "name": "Hand.R",
   "rotation": [
    -0.05381360277533531,
    -0.10769927501678467,
    0.06539652496576309,
    0.9905696511268616
   ],
   "scale": [
    0.9999998211860657,
    0.9999999403953552,
    0.9999998211860657
   ],
   "translation": [
    -1.7881393432617188e-06,
    2.9137611389160156,
    -1.1920928955078125e-07
   ]
  },
  {
   "children": [
    2
   ],
   "name": "Forearm.R",
   "rotation": [
    -0.05889559164643288,
    -0.07567371428012848,
    0.024866191670298576,
    0.9950811862945557
   ],
   "scale": [
    1.0000001192092896,
    1,
    1.0000001192092896
   ],
   "translation": [
    -1.2218952178955078e-06,
    3.4914169311523438,
    1.1138617992401123e-06
   ]
  },
  {
   "children": [
    3
   ],
   "name": "UpperArm.R",
   "rotation": [
    -0.4419390857219696,
    -0.36098524928092957,
    -0.08836891502141953,
    0.8164376616477966
   ],
   "scale": [
    0.9999998807907104,
    1,
    1
   ],
   "translation": [
    1.1920928955078125e-07,
    2.291287899017334,
    -2.51084566116333e-06
   ]
  },
  {
   "children": [
    4
   ],
   "name": "Shoulder.R",
   "rotation": [
    -0.4727807343006134,
    -0.4349612295627594,
    -0.4349612891674042,
    0.6309483647346497
   ],
   "scale": [
    0.9999998807907104,
    0.9999998211860657,
    0.9999999403953552
   ],
   "translation": [
    0.699999988079071,
    2,
    -0.10000000149011612
   ]
  },
  {
   "name": "Hand.L",
   "rotation": [
    -0.05381360277533531,
    0.10769927501678467,
    -0.06539652496576309,
    0.9905696511268616
   ],
   "scale": [
    0.9999998211860657,
    0.9999999403953552,
    0.9999998211860657
   ],
   "translation": [
    1.7881393432617188e-06,
    2.9137611389160156,
    -1.1920928955078125e-07
   ]
  },
  {
   "children": [
    6
   ],
   "name": "Forearm.L",
   "rotation": [
    -0.05889559164643288,
    0.07567371428012848,
    -0.024866191670298576,
    0.9950811862945557
   ],
   "scale": [
    1.0000001192092896,
    1,
    1.0000001192092896
   ],
   "translation": [
    1.2218952178955078e-06,
    3.4914169311523438,
    1.1138617992401123e-06
   ]
  },
  {
   "children": [
    7
   ],
   "name": "UpperArm.L",
   "rotation": [
    -0.4419390857219696,
    0.36098524928092957,
    0.08836891502141953,
    0.8164376616477966
   ],
   "scale": [
    0.9999998807907104,
    1,
    1
   ],
   "translation": [
    -1.1920928955078125e-07,
    2.291287899017334,
    -2.51084566116333e-06
   ]
  },
  {
   "children": [
    8
   ],
   "name": "Shoulder.L",
   "rotation": [
    -0.4727807343006134,
    0.4349612295627594,
    0.4349612891674042,
    0.6309483647346497
   ],
   "scale": [
    0.9999998807907104,
    0.9999998211860657,
    0.9999999403953552
   ],
   "translation": [
    -0.699999988079071,
    2,
    -0.10000000149011612
   ]
  },
  {
   "children": [
    1,
    5,
    9
   ],
   "name": "Chest",
   "translation": [
    0,
    2.700000762939453,
    0
   ]
  },
  {
   "children": [
    10
   ],
   "name": "Spine",
   "translation": [
    0,
    2.59999942779541,
    0
   ]
  },
  {
   "name": "Foot.R",
   "rotation": [
    0.4204641580581665,
    0.004780068062245846,
    -0.0026532174088060856,
    0.9072926640510559
   ],
   "translation": [
    2.169981598854065e-07,
    4.50698184967041,
    -3.259629011154175e-08
   ]
  },
  {
   "children": [
    12
   ],
   "name": "Shin.R",
   "rotation": [
    -0.08608616888523102,
    -0.013259201310575008,
    0.012160557322204113,
    0.9961252808570862
   ],
   "scale": [
    0.9999999403953552,
    1.0000001192092896,
    1
   ],
   "translation": [
    1.1734664440155029e-07,
    4.734447956085205,
    -1.30385160446167e-07
   ]
  },
  {
   "children": [
    13
   ],
   "name": "Thigh.R",
   "rotation": [
    -0.9980667233467102,
    -0.014994286000728607,
    -0.014995092526078224,
    0.0584225095808506
   ],
   "scale": [
    1.0000004768371582,
    1,
    1.0000056028366089
   ],
   "translation": [
    1.5499999523162842,
    0,
    -0.05000000074505806
   ]
  },
  {
   "name": "Foot.L",
   "rotation": [
    0.4204641580581665,
    -0.004780068062245846,
    0.0026532174088060856,
    0.9072926640510559
   ],
   "translation": [
    -2.169981598854065e-07,
    4.50698184967041,
    -3.259629011154175e-08
   ]
  },
  {
   "children": [
    15
   ],
   "name": "Shin.L",
   "rotation": [
    -0.08608616888523102,
    0.013259201310575008,
    -0.012160557322204113,
    0.9961252808570862
   ],
   "scale": [
    0.9999999403953552,
    1.0000001192092896,
    1
   ],
   "translation": [
    -1.1734664440155029e-07,
    4.734447956085205,
    -1.30385160446167e-07
   ]
  },
  {
   "children": [
    16
   ],
   "name": "Thigh.L",
   "rotation": [
    -0.9980667233467102,
    0.014994286000728607,
    0.014995092526078224,
    0.0584225095808506
   ],
   "scale": [
    1.0000004768371582,
    1,
    1.0000056028366089
   ],
   "translation": [
    -1.5499999523162842,
    0,
    -0.05000000074505806
   ]
  },
  {
   "children": [
    11,
    14,
    17
   ],
   "name": "Hips",
   "translation": [
    0,
    10.300000190734863,
    0
   ]
  },
  {
   "mesh": 0,
   "name": "TronCharacter_03 - Default_0",
   "skin": 0
  },
  {
   "children": [
    19,
    18
   ],
   "name": "TronRig"
  }
 ],
 "animations": [
  {
   "channels": [
    {
     "sampler": 0,
     "target": {
      "node": 18,
      "path": "translation"
     }
    },
    {
     "sampler": 1,
     "target": {
      "node": 18,
      "path": "rotation"
     }
    },
    {
     "sampler": 2,
     "target": {
      "node": 18,
      "path": "scale"
     }
    },
    {
     "sampler": 3,
     "target": {
      "node": 11,
      "path": "translation"
     }
    },
    {
     "sampler": 4,
     "target": {
      "node": 11,
      "path": "rotation"
     }
    },
    {
     "sampler": 5,
     "target": {
      "node": 11,
      "path": "scale"
     }
    },
    {
     "sampler": 6,
     "target": {
      "node": 10,
      "path": "translation"
     }
    },
    {
     "sampler": 7,
     "target": {
      "node": 10,
      "path": "rotation"
     }
    },
    {
     "sampler": 8,
     "target": {
      "node": 10,
      "path": "scale"
     }
    },
    {
     "sampler": 9,
     "target": {
      "node": 1,
      "path": "translation"
     }
    },
    {
     "sampler": 10,
     "target": {
      "node": 1,
      "path": "rotation"
     }
    },
    {
     "sampler": 11,
     "target": {
      "node": 1,
      "path": "scale"
     }
    },
    {
     "sampler": 12,
     "target": {
      "node": 0,
      "path": "translation"
     }
    },
    {
     "sampler": 13,
     "target": {
      "node": 0,
      "path": "rotation"
     }
    },
    {
     "sampler": 14,
     "target": {
      "node": 0,
      "path": "scale"
     }
    },
    {
     "sampler": 15,
     "target": {
      "node": 5,
      "path": "translation"
     }
    },
    {
     "sampler": 16,
     "target": {
      "node": 5,
      "path": "rotation"
     }
    },
    {
     "sampler": 17,
     "target": {
      "node": 5,
      "path": "scale"
     }
    },
    {
     "sampler": 18,
     "target": {
      "node": 4,
      "path": "translation"
     }
    },
    {
     "sampler": 19,
     "target": {
      "node": 4,
      "path": "rotation"
     }
    },
    {
     "sampler": 20,
     "target": {
      "node": 4,
      "path": "scale"
     }
    },
    {
     "sampler": 21,
     "target": {
      "node": 3,
      "path": "translation"
     }
    },
    {
     "sampler": 22,
     "target": {
      "node": 3,
      "path": "rotation"
     }
    },
    {
     "sampler": 23,
     "target": {
      "node": 3,
      "path": "scale"
     }
    },
    {
     "sampler": 24,
     "target": {
      "node": 2,
      "path": "translation"
     }
    },
    {
     "sampler": 25,
     "target": {
      "node": 2,
      "path": "rotation"
     }
    },
    {
     "sampler": 26,
     "target": {
      "node": 2,
      "path": "scale"
     }
    },
    {
     "sampler": 27,
     "target": {
      "node": 9,
      "path": "translation"
     }
    },
    {
     "sampler": 28,
     "target": {
      "node": 9,
      "path": "rotation"
     }
    },
    {
     "sampler": 29,
     "target": {
      "node": 9,
      "path": "scale"
     }
    },
    {
     "sampler": 30,
     "target": {
      "node": 8,
      "path": "translation"
     }
    },
    {
     "sampler": 31,
     "target": {
      "node": 8,
      "path": "rotation"
     }
    },
    {
     "sampler": 32,
     "target": {
      "node": 8,
      "path": "scale"
     }
    },
    {
     "sampler": 33,
     "target": {
      "node": 7,
      "path": "translation"
     }
    },
    {
     "sampler": 34,
     "target": {
      "node": 7,
      "path": "rotation"
     }
    },
    {
     "sampler": 35,
     "target": {
      "node": 7,
      "path": "scale"
     }
    },
    {
     "sampler": 36,
     "target": {
      "node": 6,
      "path": "translation"
     }
    },
    {
     "sampler": 37,
     "target": {
      "node": 6,
      "path": "rotation"
     }
    },
    {
     "sampler": 38,
     "target": {
      "node": 6,
      "path": "scale"
     }
    },
    {
     "sampler": 39,
     "target": {
      "node": 14,
      "path": "translation"
     }
    },
    {
     "sampler": 40,
     "target": {
      "node": 14,
      "path": "rotation"
     }
    },
    {
     "sampler": 41,
     "target": {
      "node": 14,
      "path": "scale"
     }
    },
    {
     "sampler": 42,
     "target": {
      "node": 13,
      "path": "translation"
     }
    },
    {
     "sampler": 43,
     "target": {
      "node": 13,
      "path": "rotation"
     }
    },
    {
     "sampler": 44,
     "target": {
      "node": 13,
      "path": "scale"
     }
    },
    {
     "sampler": 45,
     "target": {
      "node": 12,
      "path": "translation"
     }
    },
    {
     "sampler": 46,
     "target": {
      "node": 12,
      "path": "rotation"
     }
    },
    {
     "sampler": 47,
     "target": {
      "node": 12,
      "path": "scale"
     }
    },
    {
     "sampler": 48,
     "target": {
      "node": 17,
      "path": "translation"
     }
    },
    {
     "sampler": 49,
     "target": {
      "node": 17,
      "path": "rotation"
     }
    },
    {
     "sampler": 50,
     "target": {
      "node": 17,
      "path": "scale"
     }
    },
    {
     "sampler": 51,
     "target": {
      "node": 16,
      "path": "translation"
     }
    },
    {
     "sampler": 52,
     "target": {
      "node": 16,
      "path": "rotation"
     }
    },
    {
     "sampler": 53,
     "target": {
      "node": 16,
      "path": "scale"
     }
    },
    {
     "sampler": 54,
     "target": {
      "node": 15,
      "path": "translation"
     }
    },
    {
     "sampler": 55,
     "target": {
      "node": 15,
      "path": "rotation"
     }
    },
    {
     "sampler": 56,
     "target": {
      "node": 15,
      "path": "scale"
     }
    }
   ],
   "name": "Walk",
   "samplers": [
    {
     "input": 8,
     "interpolation": "LINEAR",
     "output": 9
    },
    {
     "input": 8,
     "interpolation": "LINEAR",
     "output": 10
    },
    {
     "input": 11,
     "interpolation": "STEP",
     "output": 12
    },
    {
     "input": 11,
     "interpolation": "STEP",
     "output": 13
    },
    {
     "input": 11,
     "interpolation": "STEP",
     "output": 14
    },
    {
     "input": 11,
     "interpolation": "STEP",
     "output": 12
    },
    {
     "input": 11,
     "interpolation": "LINEAR",
     "output": 15
    },
    {
     "input": 8,
     "interpolation": "LINEAR",
     "output": 16
    },
    {
     "input": 11,
     "interpolation": "STEP",
     "output": 12
    },
    {
     "input": 11,
     "interpolation": "LINEAR",
     "output": 17
    },
    {
     "input": 11,
     "interpolation": "LINEAR",
     "output": 18
    },
    {
     "input": 11,
     "interpolation": "STEP",
     "output": 12
    },
    {
     "input": 11,
     "interpolation": "LINEAR",
     "output": 19
    },
    {
     "input": 8,
     "interpolation": "LINEAR",
     "output": 20
    },
    {
     "input": 11,
     "interpolation": "STEP",
     "output": 12
    },
    {
     "input": 11,
     "interpolation": "STEP",
     "output": 21
    },
    {
     "input": 11,
     "interpolation": "STEP",
     "output": 22
    },
    {
     "input": 11,
     "interpolation": "STEP",
     "output": 23
    },
    {
     "input": 11,
     "interpolation": "STEP",
     "output": 24
    },
    {
     "input": 8,
     "interpolation": "LINEAR",
     "output": 25
    },
    {
     "input": 11,
     "interpolation": "STEP",
     "output": 26
    },
    {
     "input": 11,
     "interpolation": "STEP",
     "output": 27
    },
    {
     "input": 11,
     "interpolation": "STEP",
     "output": 28
    },
    {
     "input": 11,
     "interpolation": "STEP",
     "output": 29
    },
    {
     "input": 11,
     "interpolation": "STEP",
     "output": 30
    },
    {
     "input": 11,
     "interpolation": "STEP",
     "output": 31
    },
    {
     "input": 11,
     "interpolation": "STEP",
     "output": 32
    },
    {
     "input": 11,
     "interpolation": "STEP",
     "output": 33
    },
    {
     "input": 11,
     "interpolation": "STEP",
     "output": 34
    },
    {
     "input": 11,
     "interpolation": "STEP",
     "output": 23
    },
    {
     "input": 11,
     "interpolation": "STEP",
     "output": 35
    },
    {
     "input": 8,
     "interpolation": "LINEAR",
     "output": 36
    },
    {
     "input": 11,
     "interpolation": "STEP",
     "output": 26
    },
    {
     "input": 11,
     "interpolation": "STEP",
     "output": 37
    },
    {
     "input": 11,
     "interpolation": "STEP",
     "output": 38
    },
    {
     "input": 11,
     "interpolation": "STEP",
     "output": 29
    },
    {
     "input": 11,
     "interpolation": "STEP",
     "output": 39
    },
    {
     "input": 11,
     "interpolation": "STEP",
     "output": 40
    },
    {
     "input": 11,
     "interpolation": "STEP",
     "output": 32
    },
    {
     "input": 11,
     "interpolation": "STEP",
     "output": 41
    },
    {
     "input": 8,
     "interpolation": "LINEAR",
     "output": 42
    },
    {
     "input": 11,
     "interpolation": "STEP",
     "output": 43
    },
    {
     "input": 11,
     "interpolation": "STEP",
     "output": 44
    },
    {
     "input": 8,
     "interpolation": "LINEAR",
     "output": 45
    },
    {
     "input": 11,
     "interpolation": "STEP",
     "output": 46
    },
    {
     "input": 11,
     "interpolation": "STEP",
     "output": 47
    },
    {
     "input": 8,
     "interpolation": "LINEAR",
     "output": 48
    },
    {
     "input": 11,
     "interpolation": "STEP",
     "output": 49
    },
    {
     "input": 11,
     "interpolation": "STEP",
     "output": 50
    },
    {
     "input": 8,
     "interpolation": "LINEAR",
     "output": 51
    },
    {
     "input": 11,
     "interpolation": "STEP",
     "output": 43
    },
    {
     "input": 11,
     "interpolation": "STEP",
     "output": 52
    },
    {
     "input": 8,
     "interpolation": "LINEAR",
     "output": 53
    },
    {
     "input": 11,
     "interpolation": "STEP",
     "output": 46
    },
    {
     "input": 11,
     "interpolation": "STEP",
     "output": 54
    },
    {
     "input": 8,
     "interpolation": "LINEAR",
     "output": 55
    },
    {
     "input": 11,
     "interpolation": "STEP",
     "output": 26
    }
   ]
  }
 ],
 "materials": [
  {
   "doubleSided": true,
   "emissiveFactor": [
    1,
    1,
    1
   ],
   "emissiveTexture": {
    "index": 0
   },
   "name": "03_-_Default",
   "normalTexture": {
    "index": 1
   },
   "pbrMetallicRoughness": {
    "baseColorTexture": {
     "index": 2
    },
    "metallicRoughnessTexture": {
     "index": 3
    }
   }
  }
 ],
 "meshes": [
  {
   "name": "TronCharacter_03 - Default_0",
   "primitives": [
    {
     "attributes": {
      "POSITION": 0,
      "NORMAL": 1,
      "TEXCOORD_0": 2,
      "TANGENT": 3,
      "JOINTS_0": 4,
      "WEIGHTS_0": 5
     },
     "indices": 6,
     "material": 0
    }
   ]
  }
 ],
 "textures": [
  {
   "sampler": 0,
   "source": 0
  },
  {
   "sampler": 0,
   "source": 1
  },
  {
   "sampler": 0,
   "source": 2
  },
  {
   "sampler": 0,
   "source": 3
  }
 ],
 "images": [
  {
   "mimeType": "image/png",
   "name": "03_-_Default_emissive",
   "uri": "textures/03_-_Default_emissive.png"
  },
  {
   "mimeType": "image/png",
   "name": "03_-_Default_normal",
   "uri": "textures/03_-_Default_normal.png"
  },
  {
   "mimeType": "image/png",
   "name": "03_-_Default_baseColor",
   "uri": "textures/03_-_Default_baseColor.png"
  },
  {
   "mimeType": "image/png",
   "name": "03_-_Default_metallicRoughness",
   "uri": "textures/03_-_Default_metallicRoughness.png"
  }
 ],
 "skins": [
  {
   "inverseBindMatrices": 7,
   "joints": [
    18,
    11,
    10,
    1,
    0,
    5,
    4,
    3,
    2,
    9,
    8,
    7,
    6,
    14,
    13,
    12,
    17,
    16,
    15
   ],
   "name": "TronRig"
  }
 ],
 "accessors": [
  {
   "bufferView": 0,
   "componentType": 5126,
   "count": 15488,
   "max": [
    7.889481067657471,
    23.51579475402832,
    1.778749704360962
   ],
   "min": [
    -7.889481067657471,
    -0.09164595603942871,
    -1.771386742591858
   ],
   "type": "VEC3"
  },
  {
   "bufferView": 1,
   "componentType": 5126,
   "count": 15488,
   "type": "VEC3"
  },
  {
   "bufferView": 2,
   "componentType": 5126,
   "count": 15488,
   "type": "VEC2"
  },
  {
   "bufferView": 3,
   "componentType": 5126,
   "count": 15488,
   "type": "VEC4"
  },
  {
   "bufferView": 4,
   "componentType": 5121,
   "count": 15488,
   "type": "VEC4"
  },
  {
   "bufferView": 5,
   "componentType": 5126,
   "count": 15488,
   "type": "VEC4"
  },
  {
   "bufferView": 6,
   "componentType": 5123,
   "count": 83280,
   "type": "SCALAR"
  },
  {
   "bufferView": 7,
   "componentType": 5126,
   "count": 19,
   "type": "MAT4"
  },
  {
   "bufferView": 8,
   "componentType": 5126,
   "count": 25,
   "max": [
    1.0416666666666667
   ],
   "min": [
    0.041666666666666664
   ],
   "type": "SCALAR"
  },
  {
   "bufferView": 9,
   "componentType": 5126,
   "count": 25,
   "type": "VEC3"
  },
  {
   "bufferView": 10,
   "componentType": 5126,
   "count": 25,
   "type": "VEC4"
  },
  {
   "bufferView": 11,
   "componentType": 5126,
   "count": 2,
   "max": [
    1.0416666666666667
   ],
   "min": [
    0.041666666666666664
   ],
   "type": "SCALAR"
  },
  {
   "bufferView": 12,
   "componentType": 5126,
   "count": 2,
   "type": "VEC3"
  },
  {
   "bufferView": 13,
   "componentType": 5126,
   "count": 2,
   "type": "VEC3"
  },
  {
   "bufferView": 14,
   "componentType": 5126,
   "count": 2,
   "type": "VEC4"
  },
  {
   "bufferView": 15,
   "componentType": 5126,
   "count": 2,
   "type": "VEC3"
  },
  {
   "bufferView": 16,
   "componentType": 5126,
   "count": 25,
   "type": "VEC4"
  },
  {
   "bufferView": 17,
   "componentType": 5126,
   "count": 2,
   "type": "VEC3"
  },
  {
   "bufferView": 18,
   "componentType": 5126,
   "count": 2,
   "type": "VEC4"
  },
  {
   "bufferView": 19,
   "componentType": 5126,
   "count": 2,
   "type": "VEC3"
  },
  {
   "bufferView": 20,
   "componentType": 5126,
   "count": 25,
   "type": "VEC4"
  },
  {
   "bufferView": 21,
   "componentType": 5126,
   "count": 2,
   "type": "VEC3"
  },
  {
   "bufferView": 22,
   "componentType": 5126,
   "count": 2,
   "type": "VEC4"
  },
  {
   "bufferView": 23,
   "componentType": 5126,
   "count": 2,
   "type": "VEC3"
  },
  {
   "bufferView": 24,
   "componentType": 5126,
   "count": 2,
   "type": "VEC3"
  },
  {
   "bufferView": 25,
   "componentType": 5126,
   "count": 25,
   "type": "VEC4"
  },
  {
   "bufferView": 26,
   "componentType": 5126,
   "count": 2,
   "type": "VEC3"
  },
  {
   "bufferView": 27,
   "componentType": 5126,
   "count": 2,
   "type": "VEC3"
  },
  {
   "bufferView": 28,
   "componentType": 5126,
   "count": 2,
   "type": "VEC4"
  },
  {
   "bufferView": 29,
   "componentType": 5126,
   "count": 2,
   "type": "VEC3"
  },
  {
   "bufferView": 30,
   "componentType": 5126,
   "count": 2,
   "type": "VEC3"
  },
  {
   "bufferView": 31,
   "componentType": 5126,
   "count": 2,
   "type": "VEC4"
  },
  {
   "bufferView": 32,
   "componentType": 5126,
   "count": 2,
   "type": "VEC3"
  },
  {
   "bufferView": 33,
   "componentType": 5126,
   "count": 2,
   "type": "VEC3"
  },
  {
   "bufferView": 34,
   "componentType": 5126,
   "count": 2,
   "type": "VEC4"
  },
  {
   "bufferView": 35,
   "componentType": 5126,
   "count": 2,
   "type": "VEC3"
  },
  {
   "bufferView": 36,
   "componentType": 5126,
   "count": 25,
   "type": "VEC4"
  },
  {
   "bufferView": 37,
   "componentType": 5126,
   "count": 2,
   "type": "VEC3"
  },
  {
   "bufferView": 38,
   "componentType": 5126,
   "count": 2,
   "type": "VEC4"
  },
  {
   "bufferView": 39,
   "componentType": 5126,
   "count": 2,
   "type": "VEC3"
  },
  {
   "bufferView": 40,
   "componentType": 5126,
   "count": 2,
   "type": "VEC4"
  },
  {
   "bufferView": 41,
   "componentType": 5126,
   "count": 2,
   "type": "VEC3"
  },
  {
   "bufferView": 42,
   "componentType": 5126,
   "count": 25,
   "type": "VEC4"
  },
  {
   "bufferView": 43,
   "componentType": 5126,
   "count": 2,
   "type": "VEC3"
  },
  {
   "bufferView": 44,
   "componentType": 5126,
   "count": 2,
   "type": "VEC3"
  },
  {
   "bufferView": 45,
   "componentType": 5126,
   "count": 25,
   "type": "VEC4"
  },
  {
   "bufferView": 46,
   "componentType": 5126,
   "count": 2,
   "type": "VEC3"
  },
  {
   "bufferView": 47,
   "componentType": 5126,
   "count": 2,
   "type": "VEC3"
  },
  {
   "bufferView": 48,
   "componentType": 5126,
   "count": 25,
   "type": "VEC4"
  },
  {
   "bufferView": 49,
   "componentType": 5126,
   "count": 2,
   "type": "VEC3"
  },
  {
   "bufferView": 50,
   "componentType": 5126,
   "count": 2,
   "type": "VEC3"
  },
  {
   "bufferView": 51,
   "componentType": 5126,
   "count": 25,
   "type": "VEC4"
  },
  {
   "bufferView": 52,
   "componentType": 5126,
   "count": 2,
   "type": "VEC3"
  },
  {
   "bufferView": 53,
   "componentType": 5126,
   "count": 25,
   "type": "VEC4"
  },
  {
   "bufferView": 54,
   "componentType": 5126,
   "count": 2,
   "type": "VEC3"
  },
  {
   "bufferView": 55,
   "componentType": 5126,
   "count": 25,
   "type": "VEC4"
  }
 ],
 "bufferViews": [
  {
   "buffer": 0,
   "byteLength": 185856,
   "byteOffset": 0,
   "target": 34962
  },
  {
   "buffer": 0,
   "byteLength": 185856,
   "byteOffset": 185856,
   "target": 34962
  },
  {
   "buffer": 0,
   "byteLength": 123904,
   "byteOffset": 371712,
   "target": 34962
  },
  {
   "buffer": 0,
   "byteLength": 247808,
   "byteOffset": 495616,
   "target": 34962
  },
  {
   "buffer": 0,
   "byteLength": 61952,
   "byteOffset": 743424,
   "target": 34962
  },
  {
   "buffer": 0,
   "byteLength": 247808,
   "byteOffset": 805376,
   "target": 34962
  },
  {
   "buffer": 0,
   "byteLength": 166560,
   "byteOffset": 1053184,
   "target": 34963
  },
  {
   "buffer": 0,
   "byteLength": 1216,
   "byteOffset": 1219744
  },
  {
   "buffer": 0,
   "byteLength": 100,
   "byteOffset": 1220960
  },
  {
   "buffer": 0,
   "byteLength": 300,
   "byteOffset": 1221060
  },
  {
   "buffer": 0,
   "byteLength": 400,
   "byteOffset": 1221360
  },
  {
   "buffer": 0,
   "byteLength": 8,
   "byteOffset": 1221760
  },
  {
   "buffer": 0,
   "byteLength": 24,
   "byteOffset": 1221768
  },
  {
   "buffer": 0,
   "byteLength": 24,
   "byteOffset": 1221792
  },
  {
   "buffer": 0,
   "byteLength": 32,
   "byteOffset": 1221816
  },
  {
   "buffer": 0,
   "byteLength": 24,
   "byteOffset": 1221848
  },
  {
   "buffer": 0,
   "byteLength": 400,
   "byteOffset": 1221872
  },
  {
   "buffer": 0,
   "byteLength": 24,
   "byteOffset": 1222272
  },
  {
   "buffer": 0,
   "byteLength": 32,
   "byteOffset": 1222296
  },
  {
   "buffer": 0,
   "byteLength": 24,
   "byteOffset": 1222328
  },
  {
   "buffer": 0,
   "byteLength": 400,
   "byteOffset": 1222352
  },
  {
   "buffer": 0,
   "byteLength": 24,
   "byteOffset": 1222752
  },
  {
   "buffer": 0,
   "byteLength": 32,
   "byteOffset": 1222776
  },
  {
   "buffer": 0,
   "byteLength": 24,
   "byteOffset": 1222808
  },
  {
   "buffer": 0,
   "byteLength": 24,
   "byteOffset": 1222832
  },
  {
   "buffer": 0,
   "byteLength": 400,
   "byteOffset": 1222856
  },
  {
   "buffer": 0,
   "byteLength": 24,
   "byteOffset": 1223256
  },
  {
   "buffer": 0,
   "byteLength": 24,
   "byteOffset": 1223280
  },
  {
   "buffer": 0,
   "byteLength": 32,
   "byteOffset": 1223304
  },
  {
   "buffer": 0,
   "byteLength": 24,
   "byteOffset": 1223336
  },
  {
   "buffer": 0,
   "byteLength": 24,
   "byteOffset": 1223360
  },
  {
   "buffer": 0,
   "byteLength": 32,
   "byteOffset": 1223384
  },
  {
   "buffer": 0,
   "byteLength": 24,
   "byteOffset": 1223416
  },
  {
   "buffer": 0,
   "byteLength": 24,
   "byteOffset": 1223440
  },
  {
   "buffer": 0,
   "byteLength": 32,
   "byteOffset": 1223464
  },
  {
   "buffer": 0,
   "byteLength": 24,
   "byteOffset": 1223496
  },
  {
   "buffer": 0,
   "byteLength": 400,
   "byteOffset": 1223520
  },
  {
   "buffer": 0,
   "byteLength": 24,
   "byteOffset": 1223920
  },
  {
   "buffer": 0,
   "byteLength": 32,
   "byteOffset": 1223944
  },
  {
   "buffer": 0,
   "byteLength": 24,
   "byteOffset": 1223976
  },
  {
   "buffer": 0,
   "byteLength": 32,
   "byteOffset": 1224000
  },
  {
   "buffer": 0,
   "byteLength": 24,
   "byteOffset": 1224032
  },
  {
   "buffer": 0,
   "byteLength": 400,
   "byteOffset": 1224056
  },
  {
   "buffer": 0,
   "byteLength": 24,
   "byteOffset": 1224456
  },
  {
   "buffer": 0,
   "byteLength": 24,
   "byteOffset": 1224480
  },
  {
   "buffer": 0,
   "byteLength": 400,
   "byteOffset": 1224504
  },
  {
   "buffer": 0,
   "byteLength": 24,
   "byteOffset": 1224904
  },
  {
   "buffer": 0,
   "byteLength": 24,
   "byteOffset": 1224928
  },
  {
   "buffer": 0,
   "byteLength": 400,
   "byteOffset": 1224952
  },
  {
   "buffer": 0,
   "byteLength": 24,
   "byteOffset": 1225352
  },
  {
   "buffer": 0,
   "byteLength": 24,
   "byteOffset": 1225376
  },
  {
   "buffer": 0,
   "byteLength": 400,
   "byteOffset": 1225400
  },
  {
   "buffer": 0,
   "byteLength": 24,
   "byteOffset": 1225800
  },
  {
   "buffer": 0,
   "byteLength": 400,
   "byteOffset": 1225824
  },
  {
   "buffer": 0,
   "byteLength": 24,
   "byteOffset": 1226224
  },
  {
   "buffer": 0,
   "byteLength": 400,
   "byteOffset": 1226248
  }
 ],
 "samplers": [
  {
   "magFilter": 9729,
   "minFilter": 9987
  }
 ],
 "buffers": [
  {
   "byteLength": 1226648,
   "uri": "scene.bin"
  }
 ]
}
